<svg xmlns="http://www.w3.org/2000/svg" width="1366" height="732" viewBox="0 0 1366 732">
    <g fill="none" fill-rule="evenodd">
        <path fill="#000" d="M1145.81 110.528c-98.082-35.052-198.29-19.207-253.66 72.3-55.37 91.509-29.642 265.116-227.65 288.394C466.492 494.5 441.591 542 399.457 622.798 332.611 750.987 199.458 765.72 0 667V0h1366v120.096c-75.203 19.206-148.6 16.016-220.19-9.568z"/>
        <path fill="#FF8787" d="M966.429 507.37c72.072-85.422 7.473-153.905 81.755-194.891 74.283-40.987 188.663 54.79 148.496 213.081S846.453 649.566 966.43 507.37z"/>
        <path fill="#0B24FB" d="M119 0h751.557c-40.2 7.153-72.628 28.937-97.284 65.353-36.984 54.622-155.806 216.104-503.716 31.107C190.621 54.487 140.435 22.333 119 0z"/>
        <circle cx="496" cy="339" r="66" fill="#0B24FB"/>
    </g>
</svg>
